<svg width="44" height="44" viewBox="0 0 44 44" fill="none" xmlns="http://www.w3.org/2000/svg">
<rect x="0.5" y="0.5" width="43" height="43" rx="5.5" stroke="#E6E7E8"/>
<path d="M26.4768 13.3485L20.2039 9.55509C19.6118 9.19292 18.9387 9.0015 18.2531 9.00031C16.2093 9.00031 14.3346 10.7122 14.3346 13.105V27.3073L26.4768 19.9669C28.9081 18.4947 28.9081 14.82 26.4768 13.3485ZM17.8483 20.448V12.8679L24.1162 16.6567L17.8483 20.448Z" fill="#0E1422"/>
<path d="M29.8488 34.9844C29.8488 35.0273 17.9907 34.966 17.9907 34.966L16.9432 34.8425C15.2466 34.644 13.9441 33.1233 14.0018 31.3346C14.0018 31.2917 14.0055 31.2519 14.008 31.2103C14.0546 30.4365 14.326 29.6961 14.7857 29.0885C14.9724 28.8461 15.2008 28.6425 15.459 28.4882L24.478 23.0725C26.3413 21.9535 27.893 21.562 28.6998 19.5341C28.9973 18.7757 29.1258 17.9562 29.0756 17.1379L29.0444 16.5865L29.965 21.9204C30.0829 22.8264 29.9012 23.7537 29.421 24.5169C29.1325 24.9785 28.7474 25.3653 28.295 25.6479L17.8294 30.8943C17.819 30.9006 17.8088 30.9074 17.7991 30.9149C17.5126 31.1293 17.6894 31.6069 18.0402 31.5867L26.7514 31.6403C28.4431 31.5417 29.8524 33.2112 29.8488 34.9844Z" fill="#0E1422"/>
</svg>
